# xmcd CD database file
#
# Track frame offsets:
#	150
#	15450
#	32400
#	45450
#	63900
#	99900
#	116550
#	135450
#	146850
#	156600
#	167700
#	184050
#	202800
#	213900
#	230100
#	241050
#	253050
#	273750
#	286350
#	297750
#	320700
#
# Disc length: 4472 seconds
#
# Revision: 1
# Processed by: cddbd v1.5.2PL0 Copyright (c) Steve Scherf et al.
# Submitted via: CDex 1.50Beta7
#
DISCID=2d117615
DTITLE=Earl Hines - Classic Trio Sessions
DYEAR=1964
DGENRE=Jazz
TTITLE0=Save It Pretty Mama
TTITLE1=Bye Bye Baby
TTITLE2=Smoke Rings
TTITLE3=Shoe Shine Boy
TTITLE4=The Stanley Steamer
TTITLE5=Bernie's Tune
TTITLE6=Dream Of You
TTITLE7=Frankie And Johnny
TTITLE8=The Girl From Ipanema
TTITLE9=Believe It Beloved
TTITLE10=Louise
TTITLE11=St. James Infirmary Blues
TTITLE12=Avalon
TTITLE13=Breezin' Along With The Breeze
TTITLE14=Frenesi
TTITLE15=Broadway
TTITLE16=Trav'lin All Alone
TTITLE17=At Sundown
TTITLE18=Runnin' Wild
TTITLE19=Fatha's Blues
TTITLE20=Tosca's Dance
EXTD=YEAR: 1964
EXTT0=
EXTT1=
EXTT2=
EXTT3=
EXTT4=
EXTT5=
EXTT6=
EXTT7=
EXTT8=
EXTT9=
EXTT10=
EXTT11=
EXTT12=
EXTT13=
EXTT14=
EXTT15=
EXTT16=
EXTT17=
EXTT18=
EXTT19=
EXTT20=
PLAYORDER=
